<?xml version="1.0" encoding="iso-8859-1"?>
<!-- Uploaded to: SVG Repo, www.svgrepo.com, Generator: SVG Repo Mixer Tools -->
<svg fill="#e1e3e5" height="800px" width="800px" version="1.1" id="Capa_1" xmlns="http://www.w3.org/2000/svg"
	xmlns:xlink="http://www.w3.org/1999/xlink" viewBox="0 0 477.6 477.6" xml:space="preserve">
	<g>
		<g>
			<path d="M82.95,139.6h112.7c7.5,0,13.5-6,13.5-13.5V13.5c0-7.5-6-13.5-13.5-13.5H82.95c-7.5,0-13.5,6-13.5,13.5v112.7
			C69.45,133.6,75.45,139.6,82.95,139.6z M96.45,27h85.7v85.7h-85.7V27z" />
			<path d="M82.95,308.6h112.7c7.5,0,13.5-6,13.5-13.5V182.5c0-7.5-6-13.5-13.5-13.5H82.95c-7.5,0-13.5,6-13.5,13.5v112.7
			C69.45,302.6,75.45,308.6,82.95,308.6z M96.45,196h85.7v85.7h-85.7V196z" />
			<path d="M394.55,54.3h-102.5l29-29c5.3-5.3,5.3-13.8,0-19.1s-13.8-5.3-19.1,0l-52,52c-5.3,5.3-5.3,13.8,0,19.1l52,52
			c2.6,2.6,6.1,4,9.5,4s6.9-1.3,9.5-4c5.3-5.3,5.3-13.8,0-19.1l-29-29h89.1v313h-172v-42.8c0-7.5-6-13.5-13.5-13.5H82.95
			c-7.5,0-13.5,6-13.5,13.5v112.7c0,7.5,6,13.5,13.5,13.5h112.7c7.5,0,13.5-6,13.5-13.5v-42.8h185.5c7.5,0,13.5-6,13.5-13.5v-340
			C408.05,60.3,402.05,54.3,394.55,54.3z M182.05,450.6h-85.7v-85.7h85.7V450.6z" />
		</g>
	</g>
</svg>