<?xml version="1.0" standalone="no"?>
<!DOCTYPE svg PUBLIC "-//W3C//DTD SVG 20010904//EN" "http://www.w3.org/TR/2001/REC-SVG-20010904/DTD/svg10.dtd">
<svg version="1.0" xmlns="http://www.w3.org/2000/svg" width="512.000000pt" height="512.000000pt"
    viewBox="0 0 512.000000 512.000000" preserveAspectRatio="xMidYMid meet">

    <g transform="translate(0.000000,512.000000) scale(0.100000,-0.100000)" fill="#e1e3e5" stroke="none">
        <path d="M0 3735 l0 -1355 360 0 360 0 540 -270 c297 -149 542 -270 545 -270
3 0 5 122 5 270 l0 270 300 0 300 0 0 1355 0 1355 -1205 0 -1205 0 0 -1355z
m2110 0 l0 -1055 -300 0 -300 0 0 -175 c0 -111 -4 -175 -10 -175 -6 0 -168 79
-360 175 l-350 175 -245 0 -245 0 0 1055 0 1055 905 0 905 0 0 -1055z" />
        <path d="M1080 4474 c-164 -35 -327 -156 -402 -300 -74 -141 -72 -122 -76
-686 l-3 -508 150 0 151 0 0 225 0 225 305 0 305 0 0 -225 0 -226 148 3 147 3
3 450 c2 296 -1 477 -8 530 -49 348 -381 582 -720 509z m257 -320 c64 -31 126
-99 148 -162 9 -26 19 -93 22 -149 l6 -103 -308 0 -308 0 5 108 c5 119 22 172
77 235 91 103 234 132 358 71z" />
        <path d="M3010 4760 l0 -150 380 0 380 0 0 -295 c0 -162 -2 -295 -5 -295 -3 0
-53 32 -111 71 -58 39 -107 69 -108 67 -2 -2 -39 -58 -84 -124 l-81 -122 266
-176 c146 -98 271 -175 278 -172 8 2 129 82 270 176 171 114 253 175 249 183
-15 25 -147 222 -154 230 -4 5 -56 -23 -114 -62 l-106 -71 0 445 0 445 -530 0
-530 0 0 -150z" />
        <path d="M2710 1925 l0 -1355 300 0 300 0 0 -270 c0 -148 2 -270 5 -270 3 0
248 121 545 270 l539 270 361 0 360 0 0 1355 0 1355 -1205 0 -1205 0 0 -1355z
m2110 5 l0 -1050 -240 0 -240 0 -360 -180 c-198 -99 -362 -180 -365 -180 -3 0
-5 81 -5 180 l0 180 -300 0 -300 0 0 1050 0 1050 905 0 905 0 0 -1050z" />
        <path d="M3950 2666 c-201 -56 -332 -228 -332 -435 0 -43 6 -97 13 -120 7 -23
10 -42 8 -44 -2 -2 -34 -18 -71 -35 -174 -84 -277 -278 -248 -465 27 -177 144
-316 311 -368 56 -17 97 -19 475 -19 l414 0 0 150 0 150 -399 0 c-396 0 -398
0 -431 23 -51 34 -72 68 -72 119 -1 52 23 100 65 132 27 20 41 21 358 24 l329
3 0 149 0 150 -167 0 c-189 0 -220 8 -260 69 -48 71 -20 175 57 213 29 15 63
18 203 18 l167 0 0 150 0 150 -187 -1 c-117 0 -205 -6 -233 -13z" />
        <path d="M938 1602 l-267 -178 79 -120 c44 -65 84 -120 89 -122 6 -2 51 24
101 58 50 33 97 63 105 66 13 5 15 -50 15 -440 l0 -446 525 0 525 0 0 150 0
150 -375 0 -375 0 0 295 c0 162 2 295 5 295 3 0 50 -30 105 -67 59 -39 104
-63 109 -57 5 5 43 60 84 123 l76 115 -242 161 c-133 89 -253 169 -267 178
-26 16 -27 15 -292 -161z" />
    </g>
</svg>